<svg xmlns="http://www.w3.org/2000/svg" viewBox="0 0 2560 1440"><defs><style>.cls-1{fill:#3a90aa;}.cls-2{fill:#abf4ff;}.cls-3{fill:#296d77;}</style></defs><title>Artboard 1</title><g id="layer23"><path class="cls-1" d="M2560,0H902.28c64,125.24,182,242.91,280.22,311.5,199.86,139.58,299.46,63.07,644,210,278,118.55,278.51,196.23,529,282,57,19.53,129,44.16,204.5,63.25Z"/></g><g id="level2"><path class="cls-2" d="M1352.5,169.5c143.66,112.39,251.21,40.29,518,156,127.15,55.15,110.74,75,311,181C2360.76,601.39,2474.8,661.74,2560,675V0H1214.86C1248.8,68,1300.6,128.9,1352.5,169.5Z"/></g><g id="levelone"><path class="cls-3" d="M1692.5,146.5c244,83.4,374.92-13.69,525,100,137.6,104.24,137.5,269.12,250,280,34.35,3.32,64.67-9.12,92.5-27.18V0H1437.33C1504.88,57,1589.21,111.2,1692.5,146.5Z"/></g></svg>